<mxfile host="app.diagrams.net" agent="Mozilla/5.0 (Windows NT 10.0; Win64; x64) AppleWebKit/537.36 (KHTML, like Gecko) Chrome/134.0.0.0 Safari/537.36" version="26.0.16" pages="2">
  <diagram name="Page-1" id="0I2dDG6FUNbZ-NPltlTS">
    <mxGraphModel dx="1723" dy="687" grid="1" gridSize="10" guides="1" tooltips="1" connect="1" arrows="1" fold="1" page="1" pageScale="1" pageWidth="2339" pageHeight="3300" math="0" shadow="0">
      <root>
        <mxCell id="0" />
        <mxCell id="1" parent="0" />
        <mxCell id="b-_wc-JnX_Y26wc17ziu-14" value="" style="edgeStyle=orthogonalEdgeStyle;rounded=0;orthogonalLoop=1;jettySize=auto;html=1;" edge="1" parent="1" source="BDrKJTyrxqXV7Iri5jAU-1" target="BDrKJTyrxqXV7Iri5jAU-2">
          <mxGeometry relative="1" as="geometry" />
        </mxCell>
        <mxCell id="BDrKJTyrxqXV7Iri5jAU-1" value="Bắt đầu - Truy cập Website" style="ellipse;whiteSpace=wrap;html=1;" vertex="1" parent="1">
          <mxGeometry x="920" y="70" width="120" height="70" as="geometry" />
        </mxCell>
        <mxCell id="b-_wc-JnX_Y26wc17ziu-15" style="edgeStyle=none;rounded=0;orthogonalLoop=1;jettySize=auto;html=1;" edge="1" parent="1" source="BDrKJTyrxqXV7Iri5jAU-2" target="BDrKJTyrxqXV7Iri5jAU-3">
          <mxGeometry relative="1" as="geometry" />
        </mxCell>
        <mxCell id="b-_wc-JnX_Y26wc17ziu-16" style="edgeStyle=none;rounded=0;orthogonalLoop=1;jettySize=auto;html=1;" edge="1" parent="1" source="BDrKJTyrxqXV7Iri5jAU-2" target="BDrKJTyrxqXV7Iri5jAU-4">
          <mxGeometry relative="1" as="geometry" />
        </mxCell>
        <mxCell id="BDrKJTyrxqXV7Iri5jAU-2" value="Trang đăng nhập" style="rounded=0;whiteSpace=wrap;html=1;" vertex="1" parent="1">
          <mxGeometry x="910" y="180" width="140" height="60" as="geometry" />
        </mxCell>
        <mxCell id="b-_wc-JnX_Y26wc17ziu-17" style="edgeStyle=none;rounded=0;orthogonalLoop=1;jettySize=auto;html=1;exitX=0.5;exitY=1;exitDx=0;exitDy=0;" edge="1" parent="1" source="BDrKJTyrxqXV7Iri5jAU-3" target="BDrKJTyrxqXV7Iri5jAU-5">
          <mxGeometry relative="1" as="geometry" />
        </mxCell>
        <mxCell id="BDrKJTyrxqXV7Iri5jAU-3" value="Chưa có Metamask" style="rhombus;whiteSpace=wrap;html=1;" vertex="1" parent="1">
          <mxGeometry x="820" y="270" width="80" height="80" as="geometry" />
        </mxCell>
        <mxCell id="b-_wc-JnX_Y26wc17ziu-19" style="edgeStyle=none;rounded=0;orthogonalLoop=1;jettySize=auto;html=1;exitX=0.5;exitY=1;exitDx=0;exitDy=0;entryX=0.5;entryY=0;entryDx=0;entryDy=0;" edge="1" parent="1" source="BDrKJTyrxqXV7Iri5jAU-4" target="BDrKJTyrxqXV7Iri5jAU-6">
          <mxGeometry relative="1" as="geometry" />
        </mxCell>
        <mxCell id="BDrKJTyrxqXV7Iri5jAU-4" value="Đã có Metamask" style="rhombus;whiteSpace=wrap;html=1;" vertex="1" parent="1">
          <mxGeometry x="1040" y="270" width="80" height="80" as="geometry" />
        </mxCell>
        <mxCell id="b-_wc-JnX_Y26wc17ziu-18" style="edgeStyle=none;rounded=0;orthogonalLoop=1;jettySize=auto;html=1;exitX=1;exitY=0.25;exitDx=0;exitDy=0;entryX=0.5;entryY=1;entryDx=0;entryDy=0;" edge="1" parent="1" source="BDrKJTyrxqXV7Iri5jAU-5" target="BDrKJTyrxqXV7Iri5jAU-2">
          <mxGeometry relative="1" as="geometry" />
        </mxCell>
        <mxCell id="BDrKJTyrxqXV7Iri5jAU-5" value="Popup hướng dẫn cài đặt và kết nối với Binance Smart Chain" style="rounded=1;whiteSpace=wrap;html=1;" vertex="1" parent="1">
          <mxGeometry x="790" y="390" width="120" height="60" as="geometry" />
        </mxCell>
        <mxCell id="b-_wc-JnX_Y26wc17ziu-20" style="edgeStyle=none;rounded=0;orthogonalLoop=1;jettySize=auto;html=1;exitX=0.5;exitY=1;exitDx=0;exitDy=0;entryX=0.5;entryY=0;entryDx=0;entryDy=0;" edge="1" parent="1" source="BDrKJTyrxqXV7Iri5jAU-6" target="BDrKJTyrxqXV7Iri5jAU-7">
          <mxGeometry relative="1" as="geometry" />
        </mxCell>
        <mxCell id="BDrKJTyrxqXV7Iri5jAU-6" value="Popup kết nối ví Metamsk" style="rounded=1;whiteSpace=wrap;html=1;" vertex="1" parent="1">
          <mxGeometry x="1020" y="390" width="120" height="60" as="geometry" />
        </mxCell>
        <mxCell id="b-_wc-JnX_Y26wc17ziu-22" style="edgeStyle=none;rounded=0;orthogonalLoop=1;jettySize=auto;html=1;exitX=0.25;exitY=1;exitDx=0;exitDy=0;" edge="1" parent="1" source="BDrKJTyrxqXV7Iri5jAU-7" target="BDrKJTyrxqXV7Iri5jAU-8">
          <mxGeometry relative="1" as="geometry" />
        </mxCell>
        <mxCell id="b-_wc-JnX_Y26wc17ziu-33" style="edgeStyle=none;rounded=0;orthogonalLoop=1;jettySize=auto;html=1;exitX=1;exitY=0.5;exitDx=0;exitDy=0;entryX=0.5;entryY=0;entryDx=0;entryDy=0;" edge="1" parent="1" source="BDrKJTyrxqXV7Iri5jAU-7" target="b-_wc-JnX_Y26wc17ziu-1">
          <mxGeometry relative="1" as="geometry" />
        </mxCell>
        <mxCell id="BDrKJTyrxqXV7Iri5jAU-7" value="Trang chủ" style="rounded=0;whiteSpace=wrap;html=1;" vertex="1" parent="1">
          <mxGeometry x="1020" y="500" width="120" height="60" as="geometry" />
        </mxCell>
        <mxCell id="b-_wc-JnX_Y26wc17ziu-23" style="edgeStyle=none;rounded=0;orthogonalLoop=1;jettySize=auto;html=1;exitX=0.75;exitY=0;exitDx=0;exitDy=0;entryX=0;entryY=1;entryDx=0;entryDy=0;" edge="1" parent="1" source="BDrKJTyrxqXV7Iri5jAU-8" target="BDrKJTyrxqXV7Iri5jAU-9">
          <mxGeometry relative="1" as="geometry" />
        </mxCell>
        <mxCell id="b-_wc-JnX_Y26wc17ziu-25" style="edgeStyle=none;rounded=0;orthogonalLoop=1;jettySize=auto;html=1;exitX=0;exitY=0.5;exitDx=0;exitDy=0;entryX=1;entryY=0;entryDx=0;entryDy=0;" edge="1" parent="1" source="BDrKJTyrxqXV7Iri5jAU-8" target="BDrKJTyrxqXV7Iri5jAU-11">
          <mxGeometry relative="1" as="geometry" />
        </mxCell>
        <mxCell id="b-_wc-JnX_Y26wc17ziu-29" style="edgeStyle=none;rounded=0;orthogonalLoop=1;jettySize=auto;html=1;exitX=0.75;exitY=1;exitDx=0;exitDy=0;entryX=0;entryY=0;entryDx=0;entryDy=0;" edge="1" parent="1" source="BDrKJTyrxqXV7Iri5jAU-8" target="BDrKJTyrxqXV7Iri5jAU-14">
          <mxGeometry relative="1" as="geometry" />
        </mxCell>
        <mxCell id="BDrKJTyrxqXV7Iri5jAU-8" value="Trang cài đặt tài khoản" style="rounded=0;whiteSpace=wrap;html=1;" vertex="1" parent="1">
          <mxGeometry x="1030" y="700" width="120" height="60" as="geometry" />
        </mxCell>
        <mxCell id="BDrKJTyrxqXV7Iri5jAU-9" value="Quay lại" style="rhombus;whiteSpace=wrap;html=1;" vertex="1" parent="1">
          <mxGeometry x="1100" y="590" width="80" height="80" as="geometry" />
        </mxCell>
        <mxCell id="b-_wc-JnX_Y26wc17ziu-27" style="edgeStyle=none;rounded=0;orthogonalLoop=1;jettySize=auto;html=1;exitX=0.75;exitY=0;exitDx=0;exitDy=0;entryX=0;entryY=1;entryDx=0;entryDy=0;" edge="1" parent="1" source="BDrKJTyrxqXV7Iri5jAU-10" target="BDrKJTyrxqXV7Iri5jAU-12">
          <mxGeometry relative="1" as="geometry" />
        </mxCell>
        <mxCell id="BDrKJTyrxqXV7Iri5jAU-10" value="Popup xác nhận đăng xuất" style="rounded=1;whiteSpace=wrap;html=1;" vertex="1" parent="1">
          <mxGeometry x="930" y="880" width="120" height="60" as="geometry" />
        </mxCell>
        <mxCell id="b-_wc-JnX_Y26wc17ziu-26" style="edgeStyle=none;rounded=0;orthogonalLoop=1;jettySize=auto;html=1;exitX=1;exitY=1;exitDx=0;exitDy=0;" edge="1" parent="1" source="BDrKJTyrxqXV7Iri5jAU-11" target="BDrKJTyrxqXV7Iri5jAU-10">
          <mxGeometry relative="1" as="geometry" />
        </mxCell>
        <mxCell id="BDrKJTyrxqXV7Iri5jAU-11" value="Đăng xuất" style="rhombus;whiteSpace=wrap;html=1;" vertex="1" parent="1">
          <mxGeometry x="910" y="770" width="80" height="80" as="geometry" />
        </mxCell>
        <mxCell id="b-_wc-JnX_Y26wc17ziu-28" style="edgeStyle=none;rounded=0;orthogonalLoop=1;jettySize=auto;html=1;exitX=1;exitY=0;exitDx=0;exitDy=0;entryX=0.5;entryY=1;entryDx=0;entryDy=0;" edge="1" parent="1" source="BDrKJTyrxqXV7Iri5jAU-12" target="BDrKJTyrxqXV7Iri5jAU-8">
          <mxGeometry relative="1" as="geometry" />
        </mxCell>
        <mxCell id="BDrKJTyrxqXV7Iri5jAU-12" value="Hủy" style="rhombus;whiteSpace=wrap;html=1;" vertex="1" parent="1">
          <mxGeometry x="1030" y="770" width="80" height="80" as="geometry" />
        </mxCell>
        <mxCell id="b-_wc-JnX_Y26wc17ziu-31" style="edgeStyle=none;rounded=0;orthogonalLoop=1;jettySize=auto;html=1;exitX=0.75;exitY=0;exitDx=0;exitDy=0;entryX=0;entryY=1;entryDx=0;entryDy=0;" edge="1" parent="1" source="BDrKJTyrxqXV7Iri5jAU-13" target="BDrKJTyrxqXV7Iri5jAU-15">
          <mxGeometry relative="1" as="geometry" />
        </mxCell>
        <mxCell id="BDrKJTyrxqXV7Iri5jAU-13" value="Popup xác nhận xóa tài khoản" style="rounded=1;whiteSpace=wrap;html=1;" vertex="1" parent="1">
          <mxGeometry x="1140" y="880" width="120" height="60" as="geometry" />
        </mxCell>
        <mxCell id="b-_wc-JnX_Y26wc17ziu-30" style="edgeStyle=none;rounded=0;orthogonalLoop=1;jettySize=auto;html=1;exitX=1;exitY=1;exitDx=0;exitDy=0;entryX=0.5;entryY=0;entryDx=0;entryDy=0;" edge="1" parent="1" source="BDrKJTyrxqXV7Iri5jAU-14" target="BDrKJTyrxqXV7Iri5jAU-13">
          <mxGeometry relative="1" as="geometry" />
        </mxCell>
        <mxCell id="BDrKJTyrxqXV7Iri5jAU-14" value="Xóa tài khoản" style="rhombus;whiteSpace=wrap;html=1;" vertex="1" parent="1">
          <mxGeometry x="1130" y="770" width="80" height="80" as="geometry" />
        </mxCell>
        <mxCell id="b-_wc-JnX_Y26wc17ziu-32" style="edgeStyle=none;rounded=0;orthogonalLoop=1;jettySize=auto;html=1;exitX=0;exitY=0;exitDx=0;exitDy=0;entryX=1;entryY=0.5;entryDx=0;entryDy=0;" edge="1" parent="1" source="BDrKJTyrxqXV7Iri5jAU-15" target="BDrKJTyrxqXV7Iri5jAU-8">
          <mxGeometry relative="1" as="geometry" />
        </mxCell>
        <mxCell id="BDrKJTyrxqXV7Iri5jAU-15" value="Hủy" style="rhombus;whiteSpace=wrap;html=1;" vertex="1" parent="1">
          <mxGeometry x="1220" y="770" width="80" height="80" as="geometry" />
        </mxCell>
        <mxCell id="b-_wc-JnX_Y26wc17ziu-34" style="edgeStyle=none;rounded=0;orthogonalLoop=1;jettySize=auto;html=1;exitX=0.25;exitY=1;exitDx=0;exitDy=0;entryX=1;entryY=0;entryDx=0;entryDy=0;" edge="1" parent="1" source="b-_wc-JnX_Y26wc17ziu-1" target="b-_wc-JnX_Y26wc17ziu-2">
          <mxGeometry relative="1" as="geometry" />
        </mxCell>
        <mxCell id="b-_wc-JnX_Y26wc17ziu-35" style="edgeStyle=none;rounded=0;orthogonalLoop=1;jettySize=auto;html=1;exitX=0.75;exitY=1;exitDx=0;exitDy=0;entryX=0;entryY=0;entryDx=0;entryDy=0;" edge="1" parent="1" source="b-_wc-JnX_Y26wc17ziu-1" target="b-_wc-JnX_Y26wc17ziu-3">
          <mxGeometry relative="1" as="geometry" />
        </mxCell>
        <mxCell id="b-_wc-JnX_Y26wc17ziu-1" value="Trang danh sách nhiệm vụ" style="rounded=0;whiteSpace=wrap;html=1;" vertex="1" parent="1">
          <mxGeometry x="1510" y="700" width="120" height="60" as="geometry" />
        </mxCell>
        <mxCell id="b-_wc-JnX_Y26wc17ziu-40" style="edgeStyle=none;rounded=0;orthogonalLoop=1;jettySize=auto;html=1;exitX=0.5;exitY=1;exitDx=0;exitDy=0;entryX=0.5;entryY=0;entryDx=0;entryDy=0;" edge="1" parent="1" source="b-_wc-JnX_Y26wc17ziu-2" target="b-_wc-JnX_Y26wc17ziu-7">
          <mxGeometry relative="1" as="geometry" />
        </mxCell>
        <mxCell id="b-_wc-JnX_Y26wc17ziu-2" value="Đang thực hiện" style="rhombus;whiteSpace=wrap;html=1;" vertex="1" parent="1">
          <mxGeometry x="1440" y="780" width="80" height="80" as="geometry" />
        </mxCell>
        <mxCell id="b-_wc-JnX_Y26wc17ziu-36" style="edgeStyle=none;rounded=0;orthogonalLoop=1;jettySize=auto;html=1;exitX=0.5;exitY=1;exitDx=0;exitDy=0;" edge="1" parent="1" source="b-_wc-JnX_Y26wc17ziu-3" target="b-_wc-JnX_Y26wc17ziu-4">
          <mxGeometry relative="1" as="geometry" />
        </mxCell>
        <mxCell id="b-_wc-JnX_Y26wc17ziu-3" value="Nhiệm vụ mới" style="rhombus;whiteSpace=wrap;html=1;" vertex="1" parent="1">
          <mxGeometry x="1590" y="780" width="80" height="80" as="geometry" />
        </mxCell>
        <mxCell id="b-_wc-JnX_Y26wc17ziu-4" value="Danh sách nhiệm vụ mới" style="rounded=0;whiteSpace=wrap;html=1;" vertex="1" parent="1">
          <mxGeometry x="1580" y="900" width="120" height="60" as="geometry" />
        </mxCell>
        <mxCell id="b-_wc-JnX_Y26wc17ziu-38" style="edgeStyle=none;rounded=0;orthogonalLoop=1;jettySize=auto;html=1;exitX=1;exitY=1;exitDx=0;exitDy=0;entryX=0.5;entryY=0;entryDx=0;entryDy=0;" edge="1" parent="1" source="b-_wc-JnX_Y26wc17ziu-5" target="b-_wc-JnX_Y26wc17ziu-6">
          <mxGeometry relative="1" as="geometry" />
        </mxCell>
        <mxCell id="b-_wc-JnX_Y26wc17ziu-5" value="Nhận nhiệm vụ" style="rhombus;whiteSpace=wrap;html=1;" vertex="1" parent="1">
          <mxGeometry x="1590" y="990" width="80" height="80" as="geometry" />
        </mxCell>
        <mxCell id="b-_wc-JnX_Y26wc17ziu-39" style="edgeStyle=none;rounded=0;orthogonalLoop=1;jettySize=auto;html=1;exitX=0.5;exitY=1;exitDx=0;exitDy=0;entryX=1;entryY=0.5;entryDx=0;entryDy=0;" edge="1" parent="1" source="b-_wc-JnX_Y26wc17ziu-6" target="b-_wc-JnX_Y26wc17ziu-7">
          <mxGeometry relative="1" as="geometry" />
        </mxCell>
        <mxCell id="b-_wc-JnX_Y26wc17ziu-6" value="Thực hiện nhiệm vụ" style="rounded=0;whiteSpace=wrap;html=1;" vertex="1" parent="1">
          <mxGeometry x="1590" y="1100" width="120" height="60" as="geometry" />
        </mxCell>
        <mxCell id="b-_wc-JnX_Y26wc17ziu-7" value="Danh sách nhiệm vụ đang thực hiện" style="rounded=0;whiteSpace=wrap;html=1;" vertex="1" parent="1">
          <mxGeometry x="1420" y="1210" width="120" height="60" as="geometry" />
        </mxCell>
        <mxCell id="b-_wc-JnX_Y26wc17ziu-42" style="edgeStyle=none;rounded=0;orthogonalLoop=1;jettySize=auto;html=1;exitX=0.5;exitY=1;exitDx=0;exitDy=0;entryX=0.5;entryY=0;entryDx=0;entryDy=0;" edge="1" parent="1" source="b-_wc-JnX_Y26wc17ziu-8" target="b-_wc-JnX_Y26wc17ziu-9">
          <mxGeometry relative="1" as="geometry" />
        </mxCell>
        <mxCell id="b-_wc-JnX_Y26wc17ziu-8" value="Hoàn thành" style="rhombus;whiteSpace=wrap;html=1;" vertex="1" parent="1">
          <mxGeometry x="1430" y="1300" width="80" height="80" as="geometry" />
        </mxCell>
        <mxCell id="b-_wc-JnX_Y26wc17ziu-43" style="edgeStyle=none;rounded=0;orthogonalLoop=1;jettySize=auto;html=1;exitX=1;exitY=0.5;exitDx=0;exitDy=0;entryX=0.5;entryY=0;entryDx=0;entryDy=0;" edge="1" parent="1" source="b-_wc-JnX_Y26wc17ziu-9" target="b-_wc-JnX_Y26wc17ziu-10">
          <mxGeometry relative="1" as="geometry" />
        </mxCell>
        <mxCell id="b-_wc-JnX_Y26wc17ziu-9" value="Nhấn &quot;nhận thưởng&quot;" style="rounded=0;whiteSpace=wrap;html=1;" vertex="1" parent="1">
          <mxGeometry x="1420" y="1410" width="120" height="60" as="geometry" />
        </mxCell>
        <mxCell id="b-_wc-JnX_Y26wc17ziu-44" style="edgeStyle=none;rounded=0;orthogonalLoop=1;jettySize=auto;html=1;exitX=1;exitY=0.5;exitDx=0;exitDy=0;entryX=0;entryY=1;entryDx=0;entryDy=0;" edge="1" parent="1" source="b-_wc-JnX_Y26wc17ziu-10" target="b-_wc-JnX_Y26wc17ziu-11">
          <mxGeometry relative="1" as="geometry" />
        </mxCell>
        <mxCell id="b-_wc-JnX_Y26wc17ziu-10" value="Popup hoàn thành nhiệm vụ" style="rounded=1;whiteSpace=wrap;html=1;" vertex="1" parent="1">
          <mxGeometry x="1570" y="1490" width="120" height="60" as="geometry" />
        </mxCell>
        <mxCell id="b-_wc-JnX_Y26wc17ziu-45" style="edgeStyle=none;rounded=0;orthogonalLoop=1;jettySize=auto;html=1;exitX=1;exitY=0;exitDx=0;exitDy=0;entryX=1;entryY=0.5;entryDx=0;entryDy=0;" edge="1" parent="1" source="b-_wc-JnX_Y26wc17ziu-11" target="b-_wc-JnX_Y26wc17ziu-1">
          <mxGeometry relative="1" as="geometry">
            <Array as="points">
              <mxPoint x="1840" y="960" />
            </Array>
          </mxGeometry>
        </mxCell>
        <mxCell id="b-_wc-JnX_Y26wc17ziu-11" value="Quay lại" style="rhombus;whiteSpace=wrap;html=1;" vertex="1" parent="1">
          <mxGeometry x="1810" y="1300" width="80" height="80" as="geometry" />
        </mxCell>
        <mxCell id="b-_wc-JnX_Y26wc17ziu-24" style="edgeStyle=none;rounded=0;orthogonalLoop=1;jettySize=auto;html=1;exitX=0;exitY=0;exitDx=0;exitDy=0;entryX=0.651;entryY=1.031;entryDx=0;entryDy=0;entryPerimeter=0;" edge="1" parent="1" source="BDrKJTyrxqXV7Iri5jAU-9" target="BDrKJTyrxqXV7Iri5jAU-7">
          <mxGeometry relative="1" as="geometry" />
        </mxCell>
        <mxCell id="b-_wc-JnX_Y26wc17ziu-37" style="edgeStyle=none;rounded=0;orthogonalLoop=1;jettySize=auto;html=1;exitX=0.5;exitY=1;exitDx=0;exitDy=0;entryX=0.615;entryY=0.163;entryDx=0;entryDy=0;entryPerimeter=0;" edge="1" parent="1" source="b-_wc-JnX_Y26wc17ziu-4" target="b-_wc-JnX_Y26wc17ziu-5">
          <mxGeometry relative="1" as="geometry" />
        </mxCell>
        <mxCell id="b-_wc-JnX_Y26wc17ziu-41" style="edgeStyle=none;rounded=0;orthogonalLoop=1;jettySize=auto;html=1;exitX=0.5;exitY=1;exitDx=0;exitDy=0;entryX=0.588;entryY=0.176;entryDx=0;entryDy=0;entryPerimeter=0;" edge="1" parent="1" source="b-_wc-JnX_Y26wc17ziu-7" target="b-_wc-JnX_Y26wc17ziu-8">
          <mxGeometry relative="1" as="geometry" />
        </mxCell>
      </root>
    </mxGraphModel>
  </diagram>
  <diagram id="qeSL0OyrNWg2qS3XDxHy" name="Page-2">
    <mxGraphModel grid="1" page="1" gridSize="10" guides="1" tooltips="1" connect="1" arrows="1" fold="1" pageScale="1" pageWidth="827" pageHeight="1169" math="0" shadow="0">
      <root>
        <mxCell id="0" />
        <mxCell id="1" parent="0" />
      </root>
    </mxGraphModel>
  </diagram>
</mxfile>
